<svg xmlns="http://www.w3.org/2000/svg" width="1080" height="1080" xml:space="preserve"><path fill="#0B463D" d="M0 0h1080v1080H0z"/><path fill="#8EFE9A" d="M855.784 807.172 445.659 934.816 235.115 792.227l44.39-251.865-55.289-204.526 245.561-190.652 200.85 71.238 152.299 33.71-34.778 259.488z"/><path fill="#0B463D" d="M695.543 430.093c.7-25.842-7.925-47.631-24.946-63.015-17.285-15.624-42.849-24.327-73.928-25.169a411.023 411.023 0 0 0-11.158-.149c-10.865 0-21.728.443-32.511 1.209a4435.948 4435.948 0 0 1 6.449-25.163l-78.879-13.379a3215.073 3215.073 0 0 0-13.686 51.345c-53.343 11.717-96.204 27.631-112.98 34.807l16.193 67.623c14.216-5.807 43.785-16.376 78.047-25.963-33.984 146.175-48.81 254.7-52.175 282.153l57.372 5.958 14.18 59.583c70.102-19.406 128.68-49.421 169.544-86.894 34.429-31.571 54.654-67.418 55.492-98.35 1.165-42.959-30.69-54.125-57.619-55.926l-8.004-.537 6.518-4.679c27.583-19.8 60.746-53.824 62.091-103.454zM545.726 668.897c-20.427 11.551-42.578 21.133-62.449 28.362 2.44-21.078 6.565-51.924 13.439-92.565 18.355-8.39 54.312-23.581 74.037-23.581l1.007.011c20.135.549 31.897 10.468 31.464 26.538-.655 24.108-31.63 46.606-57.498 61.235zm66.779-225.293c-1.042 38.438-61.103 78.825-103.284 92.799 7.035-35.878 15.733-76.719 26.479-122.547 10.97-1.307 21.553-2.065 31.393-2.065 1.711 0 3.41.022 5.075.068 38.196 1.033 40.531 24.558 40.337 31.745z"/></svg>
