<svg xmlns="http://www.w3.org/2000/svg" width="54.658" height="54.664" viewBox="0 0 14.462 14.463"><path fill="#8fc045" d="M7.213 3.704c.308 0 .559-.353.559-.79 0-.438-.251-.791-.56-.791-.309 0-.558.355-.558.79 0 .438.25.791.559.791zm5.741.81c-.979-.616-1.603-.372-2.561-1.043-.734-.516-.974-1-1.19-1.53-.145-.362-.21-.475-.317-.475-.068 0-.153.013-.153.368l.001.008c-.001.012-.003.022-.003.035 0 .442-.293 1.927-1.52 1.927-1.128-.002-1.506-1.422-1.506-1.953v-.016c0-.356-.084-.369-.152-.369-.108 0-.172.112-.317.476-.214.528-.455 1.013-1.19 1.53-.956.671-1.582.426-2.56 1.043C.514 5.128-.018 6.263.234 6.41c.179.105.392-.202.604-.474.419-.541 1.22-.978 1.56-.67.404.366-.022.952-.363 1.784-.296.716-.263 1.558-.2 2.26.117 1.27-.455 1.678-.12 1.898.343.221.913-.798 1.039-2.041.063-.636.041-1.267.284-1.267.281 0 .281 1.227.194 1.834-.17 1.176-.784 1.762-.676 2.963.078.846.602.88.612.024.018-1.397 1.332-2.112 1.234-4.56-.058-1.462-.268-2.565.495-4.14a18.246 18.246 0 0 0 .529-1.212c.06.163.192.484.277.628.882 1.458.886 1.462.547 2.782-.458 1.779.421 2.51.262 3.679-.091.68.319.7.492.008.207-.835-.135-1.336-.12-2.182.01-.44.151-1.281.424-1.226.17.035.034.423 0 .897-.051.72.178 1.683.491 1.59.305-.091-.044-.438.16-1.329.122-.523.348-1.174.208-1.78-.277-1.209.39-2.093.547-2.385.115-.212.228-.468.293-.7a18.213 18.213 0 0 0 .538 1.23c.761 1.577.553 2.678.495 4.14-.099 2.447 1.216 3.162 1.234 4.56.011.856.536.822.612-.024.109-1.2-.505-1.787-.674-2.963-.088-.607-.088-1.835.194-1.835.244 0 .22.632.285 1.268.126 1.242.696 2.261 1.04 2.041.335-.22-.238-.627-.12-1.898.064-.702.095-1.543-.2-2.26-.341-.832-.767-1.416-.364-1.785.338-.308 1.142.13 1.562.671.21.273.423.58.603.474.248-.147-.283-1.282-1.257-1.895zm-2.03-.888c.308.196.779-.01 1.052-.456.274-.448.246-.97-.062-1.165-.307-.195-.779.01-1.05.456-.275.45-.247.97.06 1.165zm-7.41 0c.308-.195.336-.717.063-1.165-.274-.448-.745-.65-1.052-.456-.306.197-.336.717-.062 1.165.273.448.743.652 1.052.456zm10.948 10.837H0V0h14.462z"/></svg>